<svg width="21" height="20" viewBox="0 0 21 20" fill="none" xmlns="http://www.w3.org/2000/svg">
<g id="calendar">
<path id="Icon" d="M18 8.33329H3M13.8333 1.66663V4.99996M7.16667 1.66663V4.99996M7 18.3333H14C15.4001 18.3333 16.1002 18.3333 16.635 18.0608C17.1054 17.8211 17.4878 17.4387 17.7275 16.9683C18 16.4335 18 15.7334 18 14.3333V7.33329C18 5.93316 18 5.2331 17.7275 4.69832C17.4878 4.22791 17.1054 3.84546 16.635 3.60578C16.1002 3.33329 15.4001 3.33329 14 3.33329H7C5.59987 3.33329 4.8998 3.33329 4.36502 3.60578C3.89462 3.84546 3.51217 4.22791 3.27248 4.69832C3 5.2331 3 5.93316 3 7.33329V14.3333C3 15.7334 3 16.4335 3.27248 16.9683C3.51217 17.4387 3.89462 17.8211 4.36502 18.0608C4.8998 18.3333 5.59987 18.3333 7 18.3333Z" stroke="#667085" stroke-width="1.66667" stroke-linecap="round" strokeLinejoin="round"/>
</g>
</svg>
