<svg width="17" height="16" viewBox="0 0 17 16" fill="none" xmlns="http://www.w3.org/2000/svg">
<g id="check-verified-02">
<path id="Icon" d="M6.66667 7.99967L8 9.33301L11 6.33301M12.6008 3.33201C12.7381 3.66403 13.0016 3.92794 13.3334 4.06572L14.4968 4.54766C14.8289 4.6852 15.0927 4.949 15.2302 5.28105C15.3677 5.61309 15.3677 5.98617 15.2302 6.31821L14.7486 7.48088C14.611 7.81307 14.6108 8.18652 14.749 8.51855L15.2298 9.68087C15.298 9.84533 15.3331 10.0216 15.3331 10.1996C15.3331 10.3777 15.2981 10.554 15.23 10.7184C15.1618 10.8829 15.062 11.0324 14.9361 11.1582C14.8102 11.2841 14.6607 11.3839 14.4962 11.452L13.3336 11.9336C13.0016 12.0709 12.7377 12.3344 12.5999 12.6662L12.118 13.8297C11.9804 14.1617 11.7166 14.4255 11.3846 14.5631C11.0526 14.7006 10.6795 14.7006 10.3475 14.5631L9.18486 14.0815C8.85282 13.9443 8.47988 13.9446 8.14805 14.0823L6.9846 14.5635C6.65275 14.7007 6.28001 14.7006 5.94825 14.5632C5.61648 14.4258 5.35283 14.1623 5.21521 13.8306L4.73315 12.6667C4.59587 12.3347 4.33236 12.0708 4.00056 11.933L2.83711 11.4511C2.50522 11.3136 2.2415 11.05 2.10392 10.7181C1.96634 10.3863 1.96615 10.0134 2.1034 9.68137L2.58498 8.51871C2.72217 8.18666 2.72189 7.81371 2.5842 7.48186L2.10331 6.31753C2.03514 6.15307 2.00003 5.97679 2 5.79876C1.99997 5.62073 2.03502 5.44444 2.10315 5.27996C2.17128 5.11548 2.27114 4.96604 2.39705 4.84018C2.52295 4.71431 2.67242 4.61449 2.83691 4.54641L3.99953 4.06482C4.33125 3.92766 4.59499 3.66447 4.73287 3.33305L5.21479 2.16955C5.35232 1.8375 5.61612 1.5737 5.94815 1.43616C6.28018 1.29862 6.65325 1.29862 6.98528 1.43616L8.1479 1.91775C8.47994 2.05495 8.85287 2.05467 9.1847 1.91697L10.3486 1.43691C10.6806 1.29945 11.0536 1.29948 11.3856 1.43699C11.7176 1.5745 11.9813 1.83823 12.1189 2.17018L12.6009 3.33403L12.6008 3.33201Z" stroke="#1D9C53" stroke-width="1.33333" stroke-linecap="round" strokeLinejoin="round"/>
</g>
</svg>
