<svg width="17" height="16" viewBox="0 0 17 16" fill="none" xmlns="http://www.w3.org/2000/svg">
<g id="check-verified-02">
<path id="Icon" d="M6.33317 7.99967L7.6665 9.33301L10.6665 6.33301M12.2673 3.33201C12.4046 3.66403 12.6681 3.92794 12.9999 4.06572L14.1633 4.54766C14.4954 4.6852 14.7592 4.949 14.8967 5.28105C15.0342 5.61309 15.0342 5.98617 14.8967 6.31821L14.4151 7.48088C14.2775 7.81307 14.2773 8.18652 14.4155 8.51855L14.8963 9.68087C14.9645 9.84533 14.9996 10.0216 14.9996 10.1996C14.9996 10.3777 14.9646 10.554 14.8965 10.7184C14.8283 10.8829 14.7285 11.0324 14.6026 11.1582C14.4767 11.2841 14.3272 11.3839 14.1627 11.452L13.0001 11.9336C12.6681 12.0709 12.4042 12.3344 12.2664 12.6662L11.7845 13.8297C11.6469 14.1617 11.3831 14.4255 11.0511 14.5631C10.7191 14.7006 10.346 14.7006 10.014 14.5631L8.85136 14.0815C8.51932 13.9443 8.14639 13.9446 7.81455 14.0823L6.6511 14.5635C6.31925 14.7007 5.94651 14.7006 5.61475 14.5632C5.28299 14.4258 5.01934 14.1623 4.88171 13.8306L4.39965 12.6667C4.26237 12.3347 3.99887 12.0708 3.66707 11.933L2.50361 11.4511C2.17173 11.3136 1.90801 11.05 1.77043 10.7181C1.63284 10.3863 1.63266 10.0134 1.76991 9.68137L2.25148 8.51871C2.38867 8.18666 2.38839 7.81371 2.2507 7.48186L1.76982 6.31753C1.70164 6.15307 1.66653 5.97679 1.6665 5.79876C1.66648 5.62073 1.70153 5.44444 1.76965 5.27996C1.83778 5.11548 1.93765 4.96604 2.06355 4.84018C2.18945 4.71431 2.33892 4.61449 2.50341 4.54641L3.66604 4.06482C3.99775 3.92766 4.26149 3.66447 4.39937 3.33305L4.88129 2.16955C5.01882 1.8375 5.28262 1.5737 5.61465 1.43616C5.94668 1.29862 6.31975 1.29862 6.65178 1.43616L7.8144 1.91775C8.14644 2.05495 8.51937 2.05467 8.85121 1.91697L10.0152 1.43691C10.3471 1.29945 10.7201 1.29948 11.0521 1.43699C11.3841 1.5745 11.6478 1.83823 11.7854 2.17018L12.2674 3.33403L12.2673 3.33201Z" stroke="#7A5AF8" stroke-width="1.33333" stroke-linecap="round" strokeLinejoin="round"/>
</g>
</svg>
