<svg width="16" height="16" viewBox="0 0 16 16" fill="none" xmlns="http://www.w3.org/2000/svg">
<g id="vuesax/linear/element-1">
<g id="element-1">
<path id="Vector" d="M7.00001 13.2673V2.73398C7.00001 1.73398 6.57334 1.33398 5.51334 1.33398H2.82001C1.76001 1.33398 1.33334 1.73398 1.33334 2.73398V13.2673C1.33334 14.2673 1.76001 14.6673 2.82001 14.6673H5.51334C6.57334 14.6673 7.00001 14.2673 7.00001 13.2673Z" stroke="#2C5586" stroke-width="1.5" stroke-linecap="round" strokeLinejoin="round"/>
<path id="Vector_2" d="M14.6667 7.26732V2.73398C14.6667 1.73398 14.24 1.33398 13.18 1.33398H10.4867C9.42667 1.33398 9 1.73398 9 2.73398V7.26732C9 8.26732 9.42667 8.66732 10.4867 8.66732H13.18C14.24 8.66732 14.6667 8.26732 14.6667 7.26732Z" stroke="#2C5586" stroke-width="1.5" stroke-linecap="round" strokeLinejoin="round"/>
<path id="Vector_3" d="M14.6667 13.266V12.066C14.6667 11.066 14.24 10.666 13.18 10.666H10.4867C9.42667 10.666 9 11.066 9 12.066V13.266C9 14.266 9.42667 14.666 10.4867 14.666H13.18C14.24 14.666 14.6667 14.266 14.6667 13.266Z" stroke="#2C5586" stroke-width="1.5" stroke-linecap="round" strokeLinejoin="round"/>
</g>
</g>
</svg>
