<svg width="16" height="16" viewBox="0 0 16 16" fill="none" xmlns="http://www.w3.org/2000/svg">
<g id="vuesax/linear/element-1">
<g id="element-1">
<path id="Vector" d="M6.99992 13.2663V2.73301C6.99992 1.73301 6.57325 1.33301 5.51325 1.33301H2.81992C1.75992 1.33301 1.33325 1.73301 1.33325 2.73301V13.2663C1.33325 14.2663 1.75992 14.6663 2.81992 14.6663H5.51325C6.57325 14.6663 6.99992 14.2663 6.99992 13.2663Z" stroke="#F95016" stroke-width="1.5" stroke-linecap="round" strokeLinejoin="round"/>
<path id="Vector_2" d="M14.6667 7.26634V2.73301C14.6667 1.73301 14.24 1.33301 13.18 1.33301H10.4867C9.42667 1.33301 9 1.73301 9 2.73301V7.26634C9 8.26634 9.42667 8.66634 10.4867 8.66634H13.18C14.24 8.66634 14.6667 8.26634 14.6667 7.26634Z" stroke="#F95016" stroke-width="1.5" stroke-linecap="round" strokeLinejoin="round"/>
<path id="Vector_3" d="M14.6667 13.267V12.067C14.6667 11.067 14.24 10.667 13.18 10.667H10.4867C9.42667 10.667 9 11.067 9 12.067V13.267C9 14.267 9.42667 14.667 10.4867 14.667H13.18C14.24 14.667 14.6667 14.267 14.6667 13.267Z" stroke="#F95016" stroke-width="1.5" stroke-linecap="round" strokeLinejoin="round"/>
</g>
</g>
</svg>
