<svg width="24" height="25" viewBox="0 0 24 25" fill="none" xmlns="http://www.w3.org/2000/svg">
<g id="Group">
<path id="Vector" d="M12 3.5C17.392 3.5 21.878 7.38 22.819 12.5C21.879 17.62 17.392 21.5 12 21.5C6.60803 21.5 2.12203 17.62 1.18103 12.5C2.12103 7.38 6.60803 3.5 12 3.5ZM12 19.5C14.0395 19.4996 16.0184 18.8068 17.6129 17.5352C19.2074 16.2635 20.3229 14.4883 20.777 12.5C20.3213 10.5133 19.205 8.74 17.6107 7.47003C16.0163 6.20005 14.0383 5.50853 12 5.50853C9.96173 5.50853 7.98372 6.20005 6.38941 7.47003C4.79509 8.74 3.6788 10.5133 3.22303 12.5C3.67713 14.4883 4.7927 16.2635 6.38717 17.5352C7.98164 18.8068 9.96056 19.4996 12 19.5ZM12 17C10.8066 17 9.66196 16.5259 8.81805 15.682C7.97414 14.8381 7.50003 13.6935 7.50003 12.5C7.50003 11.3065 7.97414 10.1619 8.81805 9.31802C9.66196 8.47411 10.8066 8 12 8C13.1935 8 14.3381 8.47411 15.182 9.31802C16.0259 10.1619 16.5 11.3065 16.5 12.5C16.5 13.6935 16.0259 14.8381 15.182 15.682C14.3381 16.5259 13.1935 17 12 17ZM12 15C12.6631 15 13.299 14.7366 13.7678 14.2678C14.2366 13.7989 14.5 13.163 14.5 12.5C14.5 11.837 14.2366 11.2011 13.7678 10.7322C13.299 10.2634 12.6631 10 12 10C11.337 10 10.7011 10.2634 10.2323 10.7322C9.76342 11.2011 9.50003 11.837 9.50003 12.5C9.50003 13.163 9.76342 13.7989 10.2323 14.2678C10.7011 14.7366 11.337 15 12 15Z" fill="#98A2B3"/>
</g>
</svg>
