<svg width="22" height="22" viewBox="0 0 22 22" fill="none" xmlns="http://www.w3.org/2000/svg">
<g id="Group">
<path id="Vector" d="M6.55528 4.77821V2.11155C6.55528 1.8758 6.64893 1.6497 6.81563 1.48301C6.98233 1.31631 7.20843 1.22266 7.44417 1.22266H14.5553C14.791 1.22266 15.0171 1.31631 15.1838 1.48301C15.3505 1.6497 15.4442 1.8758 15.4442 2.11155V4.77821H18.9997C19.2355 4.77821 19.4616 4.87186 19.6283 5.03856C19.795 5.20526 19.8886 5.43135 19.8886 5.6671V18.1115C19.8886 18.3473 19.795 18.5734 19.6283 18.7401C19.4616 18.9068 19.2355 19.0004 18.9997 19.0004H2.99973C2.76398 19.0004 2.53789 18.9068 2.37119 18.7401C2.20449 18.5734 2.11084 18.3473 2.11084 18.1115V5.6671C2.11084 5.43135 2.20449 5.20526 2.37119 5.03856C2.53789 4.87186 2.76398 4.77821 2.99973 4.77821H6.55528ZM8.33306 11.8893H3.88862V17.2227H18.1108V11.8893H13.6664V14.556H8.33306V11.8893ZM18.1108 6.55599H3.88862V10.1115H8.33306V8.33377H13.6664V10.1115H18.1108V6.55599ZM10.1108 10.1115V12.7782H11.8886V10.1115H10.1108ZM8.33306 3.00043V4.77821H13.6664V3.00043H8.33306Z" fill="#98100A"/>
</g>
</svg>
