<svg width="20" height="20" viewBox="0 0 20 20" fill="none" xmlns="http://www.w3.org/2000/svg">
<g id="pencil-02" clip-path="url(#clip0_392_4418)">
<path id="Icon" d="M14.9993 1.66602L18.3327 4.99935M1.66602 18.3327L2.72968 14.4326C2.79908 14.1781 2.83378 14.0509 2.88704 13.9323C2.93434 13.8269 2.99245 13.7268 3.06045 13.6334C3.13703 13.5283 3.23027 13.4351 3.41677 13.2486L12.0279 4.63742C12.193 4.47241 12.2755 4.38991 12.3706 4.359C12.4543 4.33181 12.5444 4.33181 12.6281 4.359C12.7232 4.38991 12.8057 4.47241 12.9708 4.63742L15.3613 7.02794C15.5263 7.19295 15.6088 7.27546 15.6397 7.37059C15.6669 7.45428 15.6669 7.54442 15.6397 7.62811C15.6088 7.72324 15.5263 7.80575 15.3613 7.97075L6.7501 16.5819C6.56361 16.7684 6.47036 16.8617 6.36525 16.9383C6.27192 17.0062 6.17178 17.0644 6.06645 17.1117C5.9478 17.1649 5.82058 17.1996 5.56613 17.269L1.66602 18.3327Z" stroke="white" stroke-width="1.5" stroke-linecap="round" strokeLinejoin="round"/>
</g>
<defs>
<clipPath id="clip0_392_4418">
<rect width="20" height="20" fill="white"/>
</clipPath>
</defs>
</svg>
