<svg width="20" height="21" viewBox="0 0 20 21" fill="none" xmlns="http://www.w3.org/2000/svg">
<g id="pencil-02">
<path id="Icon" d="M14.9998 1.96094L18.3332 5.29427M1.6665 18.6276L2.73017 14.7275C2.79957 14.473 2.83426 14.3458 2.88753 14.2272C2.93482 14.1218 2.99294 14.0217 3.06093 13.9284C3.13752 13.8233 3.23076 13.73 3.41726 13.5435L12.0284 4.93234C12.1934 4.76734 12.2759 4.68483 12.3711 4.65392C12.4548 4.62673 12.5449 4.62673 12.6286 4.65392C12.7237 4.68483 12.8062 4.76733 12.9712 4.93234L15.3618 7.32287C15.5268 7.48787 15.6093 7.57038 15.6402 7.66551C15.6674 7.7492 15.6674 7.83934 15.6402 7.92303C15.6093 8.01817 15.5268 8.10067 15.3618 8.26568L6.75059 16.8769C6.5641 17.0633 6.47085 17.1566 6.36574 17.2332C6.27241 17.3012 6.17227 17.3593 6.06693 17.4066C5.94829 17.4598 5.82107 17.4945 5.56662 17.5639L1.6665 18.6276Z" stroke="#2C5586" stroke-width="1.5" stroke-linecap="round" strokeLinejoin="round"/>
</g>
</svg>
